<svg id="Layer_1" data-name="Layer 1" xmlns="http://www.w3.org/2000/svg" xmlns:xlink="http://www.w3.org/1999/xlink" viewBox="0 0 500.91 163.62"><defs><style>.cls-1{fill:url(#linear-gradient);}.cls-2{fill:url(#linear-gradient-2);}.cls-3{fill:url(#linear-gradient-3);}.cls-4{fill:url(#linear-gradient-4);}.cls-5{fill:url(#linear-gradient-5);}.cls-6{fill:url(#linear-gradient-6);}.cls-7{fill:url(#linear-gradient-7);}.cls-8{fill:url(#linear-gradient-8);}</style><linearGradient id="linear-gradient" x1="110" y1="-2.08" x2="39.53" y2="143.45" gradientUnits="userSpaceOnUse"><stop offset="0" stop-color="#b60656"/><stop offset="1" stop-color="#481f67"/></linearGradient><linearGradient id="linear-gradient-2" x1="128.46" y1="6.89" x2="58.01" y2="152.38" xlink:href="#linear-gradient"/><linearGradient id="linear-gradient-3" x1="124.06" y1="4.72" x2="53.59" y2="150.26" xlink:href="#linear-gradient"/><linearGradient id="linear-gradient-4" x1="104.4" y1="-4.8" x2="33.93" y2="140.75" xlink:href="#linear-gradient"/><linearGradient id="linear-gradient-5" x1="124.39" y1="4.9" x2="53.93" y2="150.41" xlink:href="#linear-gradient"/><linearGradient id="linear-gradient-6" x1="122.78" y1="4.1" x2="52.31" y2="149.64" xlink:href="#linear-gradient"/><linearGradient id="linear-gradient-7" x1="94.36" y1="-9.62" x2="23.91" y2="135.87" xlink:href="#linear-gradient"/><linearGradient id="linear-gradient-8" x1="90.01" y1="-11.75" x2="19.56" y2="133.76" xlink:href="#linear-gradient"/></defs><path class="cls-1" d="M41.89,161.53a23,23,0,0,1-22-16.58,23,23,0,0,1,22.09-29.41,23,23,0,0,1,0,46Z"/><path class="cls-2" d="M41.88,161.52a23.09,23.09,0,0,1-22.71-19.65,23,23,0,0,1,19.41-26.08,23.64,23.64,0,0,1,3.36-.25,22.73,22.73,0,0,1,10.82,2.77,10,10,0,0,0,4.77,1.21A9.83,9.83,0,0,0,61,118.9a10,10,0,0,0,5.87-5.79A26.13,26.13,0,0,1,91.42,96.27a26.77,26.77,0,0,1,4.64.41A26.37,26.37,0,0,1,91.49,149a26,26,0,0,1-4.65-.41A26.28,26.28,0,0,1,77,144.71a10,10,0,0,0-5.48-1.64,9.8,9.8,0,0,0-2.63.35,10,10,0,0,0-6.34,5.23,23.66,23.66,0,0,1-2.22,3.61,22.84,22.84,0,0,1-15.1,9A23.87,23.87,0,0,1,41.88,161.52Z"/><path class="cls-3" d="M91.49,149a26.57,26.57,0,0,1-4.78-.44,26.36,26.36,0,0,1-21.18-30.68,25.86,25.86,0,0,1,1.71-5.68,10,10,0,0,0-9.1-13.94,21,21,0,0,1-9.86-2.59A20.92,20.92,0,1,1,78.35,83.48a10,10,0,0,0,9.56,13c.32,0,.64,0,1-.05.85-.08,1.71-.12,2.56-.12a26.55,26.55,0,0,1,4.78.43A26.37,26.37,0,0,1,91.49,149Z"/><path class="cls-4" d="M91,46a23,23,0,0,1,0-46,23.23,23.23,0,0,1,6.81,1,23,23,0,0,1,15.16,28.76A22.88,22.88,0,0,1,91,46Z"/><path class="cls-5" d="M113.91,96A26.39,26.39,0,0,1,90,58.62a10,10,0,0,0-6-13.73A23,23,0,0,1,77.55,4.32,22.83,22.83,0,0,1,90.93,0a23,23,0,0,1,21.63,30.8A10,10,0,0,0,119.77,44a26.1,26.1,0,0,1,9.63,4.37A26.37,26.37,0,0,1,113.91,96Z"/><path class="cls-6" d="M58.36,98.26a21,21,0,0,1-6.19-.94,20.92,20.92,0,1,1,12.37-40,20.51,20.51,0,0,1,8.7,5.29A10,10,0,0,0,89.6,59.51a26.38,26.38,0,1,1,3.67,26.56,10,10,0,0,0-7.84-3.79c-.28,0-.56,0-.84,0a10,10,0,0,0-7.93,5.16A20.83,20.83,0,0,1,58.36,98.26Z"/><path class="cls-7" d="M41.89,161.52a23.1,23.1,0,0,1-22.72-19.65,22.69,22.69,0,0,1,2.61-14.44,10,10,0,0,0-7.49-14.78A16.38,16.38,0,0,1,3.06,86.87,16.44,16.44,0,0,1,16.39,80a16.23,16.23,0,0,1,9.52,3.07,16.41,16.41,0,0,1,5.82,19,10,10,0,0,0,9.38,13.46h.83A23.11,23.11,0,0,1,64.66,135.2a23,23,0,0,1-19.41,26.08,23.84,23.84,0,0,1-3.36.24Z"/><path class="cls-8" d="M42.89,50.11a16.16,16.16,0,0,1-3-.28,16.37,16.37,0,0,1,3-32.47,17,17,0,0,1,3,.28A16.17,16.17,0,0,1,53.15,21,10,10,0,0,0,69,16.18,23,23,0,0,1,90.93,0,23,23,0,1,1,74,38.5,10,10,0,0,0,57.6,40.89,16.44,16.44,0,0,1,42.89,50.11Z"/><path d="M174.54,84.53a66,66,0,0,1-14-1.54A45.31,45.31,0,0,1,148,78.47l7.7-16.74a35.28,35.28,0,0,0,9.09,3.71,36.81,36.81,0,0,0,9,1.2,13.34,13.34,0,0,0,6.3-1.3,4.16,4.16,0,0,0,2.46-3.89A3.85,3.85,0,0,0,180.7,58q-1.83-1.2-6.16-1.2H165.6V42.88L183,25.18l2,7.6H151.46V15.66h50.21v14l-17.41,17.7-10.87-6.16h6q12.71,0,19.34,5.68a18.35,18.35,0,0,1,6.63,14.62,21,21,0,0,1-3.22,11.06,23.56,23.56,0,0,1-10,8.66Q185.32,84.53,174.54,84.53Z"/><path d="M213.11,83V15.66H246.3a45.38,45.38,0,0,1,19.81,4.09,31.62,31.62,0,0,1,13.37,11.59,32.39,32.39,0,0,1,4.81,17.89q0,10.49-4.81,18A31.5,31.5,0,0,1,266.11,78.9,45.38,45.38,0,0,1,246.3,83Zm22.7-17.7h9.53a18.47,18.47,0,0,0,8.41-1.82A13.13,13.13,0,0,0,259.38,58a17.73,17.73,0,0,0,2-8.8,17.28,17.28,0,0,0-2-8.66,13.22,13.22,0,0,0-5.63-5.38,18.35,18.35,0,0,0-8.41-1.83h-9.53Z"/><path d="M154.05,163.62V96.29h36q14,0,20.58,4.95t6.64,12.65a15.31,15.31,0,0,1-2.84,9.09,18.91,18.91,0,0,1-8.22,6.3,33.73,33.73,0,0,1-13.28,2.31l1.93-5.2a37.62,37.62,0,0,1,13.61,2.22A19.48,19.48,0,0,1,217.3,135a16.34,16.34,0,0,1,3.12,10.05,15.58,15.58,0,0,1-7.26,13.66q-7.26,4.9-21.21,4.91Zm22.32-15.87H190a9.64,9.64,0,0,0,5.63-1.35,5.1,5.1,0,0,0,0-7.89,9.72,9.72,0,0,0-5.63-1.34h-15.2v-15H187q3.84,0,5.63-1.3a4.79,4.79,0,0,0,0-7.45q-1.79-1.25-5.63-1.25H176.37Z"/><path d="M250.72,146.5h33.67v17.12h-56V96.29h54.73v17.12H250.72Zm-1.54-25.21h30v16.36h-30Z"/><path d="M293.14,163.62V96.29h32.42a39.68,39.68,0,0,1,16.3,3.07,23.24,23.24,0,0,1,14.38,22.32,22.72,22.72,0,0,1-14.38,22,40.72,40.72,0,0,1-16.3,3H305.74l10.1-9.33v26.26Zm22.7-23.76-10.1-10.29h18.38q4.71,0,7-2.12a8.5,8.5,0,0,0,0-11.54q-2.26-2.11-7-2.12H305.74l10.1-10.29Zm17.61,23.76L316.9,139.09H341l16.73,24.53Z"/><path d="M364.8,163.62V96.29h32.42a39.68,39.68,0,0,1,16.3,3.07,23.24,23.24,0,0,1,14.38,22.32,22.72,22.72,0,0,1-14.38,22,40.72,40.72,0,0,1-16.3,3H377.4l10.1-9.33v26.26Zm22.7-23.76-10.1-10.29h18.38q4.71,0,7-2.12a8.5,8.5,0,0,0,0-11.54q-2.26-2.11-7-2.12H377.4l10.1-10.29Zm17.61,23.76-16.55-24.53h24.05l16.73,24.53Z"/><path d="M452.82,163.62V134.09L458,147.65,427.42,96.29h23.95l20.68,35.1H458.11L479,96.29h21.93l-30.4,51.36,5-13.56v29.53Z"/></svg>