<svg xmlns="http://www.w3.org/2000/svg" xmlns:xlink="http://www.w3.org/1999/xlink" viewBox="0 0 140.3 161.6" role="img" aria-label="3DBerry"><defs><style>.cls-1{fill:url(#linear-gradient);}.cls-2{fill:url(#linear-gradient-2);}.cls-3{fill:url(#linear-gradient-3);}.cls-4{fill:url(#linear-gradient-4);}.cls-5{fill:url(#linear-gradient-5);}.cls-6{fill:url(#linear-gradient-6);}.cls-7{fill:url(#linear-gradient-7);}.cls-8{fill:url(#linear-gradient-8);}</style><linearGradient id="linear-gradient" x1="110" y1="-2.08" x2="39.53" y2="143.45" gradientUnits="userSpaceOnUse"><stop offset="0" stop-color="#b60656"/><stop offset="1" stop-color="#481f67"/></linearGradient><linearGradient id="linear-gradient-2" x1="128.46" y1="6.89" x2="58.01" y2="152.38" xlink:href="#linear-gradient"/><linearGradient id="linear-gradient-3" x1="124.06" y1="4.72" x2="53.59" y2="150.26" xlink:href="#linear-gradient"/><linearGradient id="linear-gradient-4" x1="104.4" y1="-4.8" x2="33.93" y2="140.75" xlink:href="#linear-gradient"/><linearGradient id="linear-gradient-5" x1="124.39" y1="4.9" x2="53.93" y2="150.41" xlink:href="#linear-gradient"/><linearGradient id="linear-gradient-6" x1="122.78" y1="4.1" x2="52.31" y2="149.64" xlink:href="#linear-gradient"/><linearGradient id="linear-gradient-7" x1="94.36" y1="-9.62" x2="23.91" y2="135.87" xlink:href="#linear-gradient"/><linearGradient id="linear-gradient-8" x1="90.01" y1="-11.75" x2="19.56" y2="133.76" xlink:href="#linear-gradient"/></defs><path class="cls-1" d="M41.89,161.53a23,23,0,0,1-22-16.58,23,23,0,0,1,22.09-29.41,23,23,0,0,1,0,46Z"/><path class="cls-2" d="M41.88,161.52a23.09,23.09,0,0,1-22.71-19.65,23,23,0,0,1,19.41-26.08,23.64,23.64,0,0,1,3.36-.25,22.73,22.73,0,0,1,10.82,2.77,10,10,0,0,0,4.77,1.21A9.83,9.83,0,0,0,61,118.9a10,10,0,0,0,5.87-5.79A26.13,26.13,0,0,1,91.42,96.27a26.77,26.77,0,0,1,4.64.41A26.37,26.37,0,0,1,91.49,149a26,26,0,0,1-4.65-.41A26.28,26.28,0,0,1,77,144.71a10,10,0,0,0-5.48-1.64,9.8,9.8,0,0,0-2.63.35,10,10,0,0,0-6.34,5.23,23.66,23.66,0,0,1-2.22,3.61,22.84,22.84,0,0,1-15.1,9A23.87,23.87,0,0,1,41.88,161.52Z"/><path class="cls-3" d="M91.49,149a26.57,26.57,0,0,1-4.78-.44,26.36,26.36,0,0,1-21.18-30.68,25.86,25.86,0,0,1,1.71-5.68,10,10,0,0,0-9.1-13.94,21,21,0,0,1-9.86-2.59A20.92,20.92,0,1,1,78.35,83.48a10,10,0,0,0,9.56,13c.32,0,.64,0,1-.05.85-.08,1.71-.12,2.56-.12a26.55,26.55,0,0,1,4.78.43A26.37,26.37,0,0,1,91.49,149Z"/><path class="cls-4" d="M91,46a23,23,0,0,1,0-46,23.23,23.23,0,0,1,6.81,1,23,23,0,0,1,15.16,28.76A22.88,22.88,0,0,1,91,46Z"/><path class="cls-5" d="M113.91,96A26.39,26.39,0,0,1,90,58.62a10,10,0,0,0-6-13.73A23,23,0,0,1,77.55,4.32,22.83,22.83,0,0,1,90.93,0a23,23,0,0,1,21.63,30.8A10,10,0,0,0,119.77,44a26.1,26.1,0,0,1,9.63,4.37A26.37,26.37,0,0,1,113.91,96Z"/><path class="cls-6" d="M58.36,98.26a21,21,0,0,1-6.19-.94,20.92,20.92,0,1,1,12.37-40,20.51,20.51,0,0,1,8.7,5.29A10,10,0,0,0,89.6,59.51a26.38,26.38,0,1,1,3.67,26.56,10,10,0,0,0-7.84-3.79c-.28,0-.56,0-.84,0a10,10,0,0,0-7.93,5.16A20.83,20.83,0,0,1,58.36,98.26Z"/><path class="cls-7" d="M41.89,161.52a23.1,23.1,0,0,1-22.72-19.65,22.69,22.69,0,0,1,2.61-14.44,10,10,0,0,0-7.49-14.78A16.38,16.38,0,0,1,3.06,86.87,16.44,16.44,0,0,1,16.39,80a16.23,16.23,0,0,1,9.52,3.07,16.41,16.41,0,0,1,5.82,19,10,10,0,0,0,9.38,13.46h.83A23.11,23.11,0,0,1,64.66,135.2a23,23,0,0,1-19.41,26.08,23.84,23.84,0,0,1-3.36.24Z"/><path class="cls-8" d="M42.89,50.11a16.16,16.16,0,0,1-3-.28,16.37,16.37,0,0,1,3-32.47,17,17,0,0,1,3,.28A16.17,16.17,0,0,1,53.15,21,10,10,0,0,0,69,16.18,23,23,0,0,1,90.93,0,23,23,0,1,1,74,38.5,10,10,0,0,0,57.6,40.89,16.44,16.44,0,0,1,42.89,50.11Z"/></svg>